<?xml version="1.0" encoding="utf-8"?>
<!-- Generator: Adobe Illustrator 13.0.0, SVG Export Plug-In . SVG Version: 6.00 Build 14948)  -->
<!DOCTYPE svg PUBLIC "-//W3C//DTD SVG 1.1//EN" "http://www.w3.org/Graphics/SVG/1.1/DTD/svg11.dtd">
<svg version="1.1" id="Layer_1" xmlns="http://www.w3.org/2000/svg" xmlns:xlink="http://www.w3.org/1999/xlink" x="0px" y="0px"
	 width="253px" height="115px" viewBox="0 0 253 115" enable-background="new 0 0 253 115" xml:space="preserve">
<g>
	<defs>
		<rect id="SVGID_1_" x="-293" y="-240" width="841.89" height="595.28"/>
	</defs>
	<clipPath id="SVGID_2_">
		<use xlink:href="#SVGID_1_"  overflow="visible"/>
	</clipPath>
	<path clip-path="url(#SVGID_2_)" fill="#A49469" d="M249.135,99.738c0-3.996-3.07-7.993-9.213-7.993h-9.448v0.257
		c0.913,0.284,1.431,0.619,1.431,1.96v11.58c0,1.341-0.518,1.649-1.431,1.961v0.23h9.448
		C246.064,107.733,249.135,103.762,249.135,99.738 M246.275,99.738c0,3.38-2.275,6.759-7.643,6.759h-3.401
		c-0.491-0.053-0.818-0.131-0.938-0.621V93.033h4.339C244,93.033,246.275,96.387,246.275,99.738"/>
	<path clip-path="url(#SVGID_2_)" fill="#A49469" d="M226.16,92.002v-0.257h-4.267v0.257c0.866,0.283,1.453,0.593,1.453,1.753v10.42
		l-12.708-12.43h-3.986v0.257c0.843,0.283,1.384,0.593,1.43,1.676v12.046c0,1.185-0.539,1.521-1.43,1.777v0.233h4.291v-0.233
		c-0.891-0.283-1.43-0.593-1.43-1.777V94.35l13.573,13.385h1.642V93.755C224.729,92.595,225.269,92.285,226.16,92.002"/>
	<path clip-path="url(#SVGID_2_)" fill="#A49469" d="M203.136,99.533c0-5.313-4.808-8.176-9.847-8.176
		c-5.229,0-10.106,3.249-10.106,8.612c0,5.135,4.785,8.152,9.823,8.152C198.189,108.122,203.136,104.949,203.136,99.533
		 M200.276,99.97c0,4.155-3.048,6.938-6.987,6.938c-4.103,0-7.246-3.017-7.246-7.375c0-4.127,2.956-6.912,6.918-6.912
		C197.087,92.621,200.276,95.639,200.276,99.97"/>
	<path clip-path="url(#SVGID_2_)" fill="#A49469" d="M176.244,107.734h5.368v-0.233c-0.586-0.181-1.5-0.335-2.227-2.861
		l-3.211-10.702c-0.399-1.267,0.49-1.652,1.427-1.936v-0.257h-4.852l-5.885,13.461l-6.098-13.461h-4.852v0.257
		c0.89,0.283,1.806,0.669,1.383,1.985l-3.237,10.988c-0.863,2.113-1.427,2.32-2.039,2.525v0.233h4.292v-0.233
		c-0.985-0.205-1.478-0.541-0.937-2.166l3.702-11.554l6.19,13.953h2.018l6.188-13.953l3.657,11.528
		c0.494,1.599,0.282,2.036-0.889,2.191V107.734z"/>
	<path clip-path="url(#SVGID_2_)" fill="#A49469" d="M160.995,39.426l-9.333-22.534c-0.028-0.067-0.312-0.35-0.377-0.377
		L128.747,7.18c-0.066-0.028-0.467-0.028-0.534,0l-22.534,9.335c-0.065,0.027-0.349,0.31-0.378,0.377l-9.333,22.534
		c-0.029,0.067-0.029,0.469,0,0.536l9.333,22.534c0.029,0.066,0.313,0.35,0.378,0.378l22.534,9.334c0.067,0.028,0.468,0.028,0.534,0
		l22.539-9.334c0.065-0.028,0.349-0.312,0.377-0.378l9.333-22.534C161.022,39.895,161.022,39.493,160.995,39.426 M105.374,30.122
		l-6.9,6.901l6.9-16.659V30.122z M105.374,47.292l-7.598-7.598l7.598-7.598V47.292z M105.374,59.022l-6.9-16.658l6.9,6.901V59.022z
		 M131.151,69.702l6.901-6.901h9.758L131.151,69.702z M120.883,62.801h15.196l-7.598,7.598L120.883,62.801z M109.152,62.801h9.757
		l6.9,6.901L109.152,62.801z M106.769,50.661l10.745,10.745h-10.745V50.661z M106.769,17.981h10.745l-10.745,10.746V17.981z
		 M125.81,9.685l-6.901,6.902h-9.758L125.81,9.685z M136.079,16.587h-15.196l7.598-7.599L136.079,16.587z M147.812,16.587h-9.761
		l-6.9-6.902L147.812,16.587z M150.192,28.727l-10.745-10.746h10.745V28.727z M150.192,48.687l-12.719,12.719h-17.986
		l-12.719-12.719V30.701l12.719-12.72h17.986l12.719,12.72V48.687z M150.192,61.406h-10.744l10.744-10.745V61.406z M151.588,49.266
		l6.901-6.9l-6.901,16.662V49.266z M158.489,37.023l-6.901-6.901v-9.761L158.489,37.023z M159.186,39.694l-7.598,7.598V32.096
		L159.186,39.694z"/>
	<path clip-path="url(#SVGID_2_)" fill="#A49469" d="M146.739,39.083c0-3.656-2.771-7.311-8.345-7.311h-8.556v0.196
		c0.856,0.276,1.322,0.492,1.322,1.769v10.728c0,1.219-0.466,1.455-1.322,1.75v0.177h8.556
		C143.969,46.393,146.739,42.738,146.739,39.083 M144.469,39.083c0,3.183-2.179,6.327-7.271,6.327h-3.124
		c-0.537,0-0.984-0.158-1.056-0.629V32.775h4.18C142.29,32.775,144.469,35.899,144.469,39.083"/>
	<path clip-path="url(#SVGID_2_)" fill="#A49469" d="M123.819,38.355c0.893-0.568,1.679-1.511,1.679-3.025
		c0-2.968-2.804-3.558-5.018-3.558h-9.54v0.197c0.857,0.276,1.304,0.492,1.304,1.768v10.729c0,1.219-0.447,1.455-1.304,1.75v0.176
		h10.182c2.429,0,5.626-1.061,5.626-4.205C126.748,40.045,125.32,38.748,123.819,38.355 M123.498,35.389
		c0,2.24-1.893,2.672-3.305,2.672h-6.039v-5.285h5.932C121.605,32.776,123.498,33.09,123.498,35.389 M124.426,42.187
		c0,1.651-1.125,3.203-3.501,3.203h-5.984c-0.411-0.059-0.661-0.176-0.787-0.551v-5.776h7.057
		C123.372,39.063,124.426,40.596,124.426,42.187"/>
	<path clip-path="url(#SVGID_2_)" fill="#A49469" d="M83.118,107.734l0.774-3.534H83.68c-0.422,1.135-1.547,2.27-2.929,2.27h-7.667
		c-0.329-0.077-0.611-0.204-0.705-0.618v-5.675h5.84c1.171,0,1.499,0.8,1.616,1.651h0.235l0.328-4.539h-0.211
		c-0.188,0.902-0.843,1.624-1.968,1.624h-5.84v-5.88h7.855c1.876,0,2.274,1.521,2.345,2.321h0.234l0.399-3.868h-0.211
		c-0.117,0.078-0.071,0.18-0.211,0.259H68.44v0.257c0.915,0.283,1.432,0.619,1.432,1.959v11.581c0,1.34-0.517,1.65-1.432,1.959
		v0.233H83.118z"/>
	<path clip-path="url(#SVGID_2_)" fill="#A49469" d="M64.806,92.002v-0.257H60.54v0.257c0.914,0.283,1.43,0.619,1.43,1.959v6.062
		c0,4.513-2.86,6.781-5.838,6.781c-3.259,0-5.628-2.552-5.628-7.22v-5.803c0.048-1.187,0.563-1.496,1.432-1.779v-0.257h-5.44v0.257
		c0.913,0.283,1.43,0.619,1.43,1.959v5.906c0,5.442,3.799,8.255,7.784,8.255c3.985,0,7.667-2.605,7.667-8.152v-6.009
		C63.377,92.621,63.892,92.285,64.806,92.002"/>
	<path clip-path="url(#SVGID_2_)" fill="#A49469" d="M45.019,107.734l0.75-3.482h-0.187c-0.423,1.135-1.596,2.27-3.072,2.27h-6.191
		c-0.515-0.025-0.914-0.182-0.914-0.877V93.961c0-1.34,0.493-1.676,1.455-1.959v-0.257h-5.3v0.257
		c0.939,0.283,1.43,0.619,1.43,1.959v11.762c0,1.186-0.562,1.495-1.43,1.778v0.233H45.019z"/>
	<path clip-path="url(#SVGID_2_)" fill="#A49469" d="M23.66,97.185c1.173-0.747,2.204-1.984,2.204-3.971
		c0-3.895-3.682-4.668-6.588-4.668H6.755v0.258c1.125,0.36,1.711,0.645,1.711,2.32v14.082c0,1.6-0.586,1.909-1.711,2.297v0.231
		H20.12c3.187,0,7.384-1.394,7.384-5.52C27.504,99.403,25.63,97.702,23.66,97.185 M23.238,93.293c0,2.939-2.486,3.506-4.337,3.506
		h-7.925V89.86h7.783C20.752,89.86,23.238,90.274,23.238,93.293 M24.457,102.215c0,2.168-1.476,4.204-4.596,4.204h-7.853
		c-0.54-0.078-0.868-0.232-1.032-0.723v-7.583h9.261C23.073,98.113,24.457,100.127,24.457,102.215"/>
	<path clip-path="url(#SVGID_2_)" fill="#A49469" d="M119.13,98.14c0-4.795-3.635-9.593-10.949-9.593H96.95v0.257
		c1.125,0.36,1.736,0.645,1.736,2.32v14.082c0,1.6-0.611,1.909-1.736,2.296v0.232h11.231
		C115.495,107.734,119.13,102.938,119.13,98.14 M116.153,98.14c0,4.179-2.86,8.305-9.543,8.305h-4.102
		c-0.705,0-1.29-0.205-1.384-0.826V89.86h5.486C113.293,89.86,116.153,93.961,116.153,98.14"/>
	<path clip-path="url(#SVGID_2_)" fill="#A49469" d="M126.702,105.723V93.962c0-1.341,0.493-1.676,1.455-1.96v-0.257h-5.3v0.257
		c0.938,0.284,1.43,0.619,1.43,1.96v11.761c0,1.186-0.563,1.521-1.43,1.779v0.232h5.3v-0.232
		C127.265,107.218,126.702,106.908,126.702,105.723"/>
	<path clip-path="url(#SVGID_2_)" fill="#A49469" d="M151.579,107.734v-0.231c-0.235-0.207-1.291,0.101-2.485-2.115l-7.292-13.643
		h-4.033v0.257c0.682,0.153,1.313,0.361,1.618,0.929l-6.659,12.328c-1.102,2.037-2.485,2.114-2.531,2.244v0.231h5.229v-0.231
		c-0.939-0.312-1.899-0.774-1.29-1.936l1.76-3.197h8.675l1.687,3.119c0.657,1.214-0.493,1.729-1.336,2.014v0.231H151.579z
		 M143.889,101.055h-7.315l3.728-6.989L143.889,101.055z"/>
</g>
</svg>
